# xmcd CD database file
#
# Track frame offsets:
#	150
#	4660
#	19698
#	37993
#	58925
#	86338
#	107910
#	127550
#	155135
#	164765
#	185563
#	210253
#	234530
#	258493
#	272245
#	292225
#	317540
#
# Disc length: 4504 seconds
#
# Revision: 0
# Processed by: cddbd v1.5.1PL2 Copyright (c) Steve Scherf et al.
# Submitted via: CDex 1.51
#
DISCID=eb119611
DTITLE=akiko - コラージュ～ａｋｉｋｏ　ベスト・セレクション
DYEAR=2006
DGENRE=Jazz
TTITLE0=イントロ～ガール・トーク・レヴュー
TTITLE1=アラウンド・ザ・ワールド
TTITLE2=ファンキー・モンキー・ベイビー English Version
TTITLE3=オールド・デヴィル・ムーン
TTITLE4=ムード・スウィングス
TTITLE5=アイ・ミス・ユー
TTITLE6=ソー・タイアード
TTITLE7=ファー・ビヨンド
TTITLE8=インタールード～ブルース No. 8
TTITLE9=ユーヴ・チェンジド Funk Version
TTITLE10=グッド・モーニング・ハートエイク
TTITLE11=プレリュード・トゥ・ア・キス
TTITLE12=スキンド・レ・レ
TTITLE13=インタールード～ゴッド・ブレス・ザ・チャイルド
TTITLE14=アップストリーム
TTITLE15=フライ・ミー・トゥ・ザ・ムーン
TTITLE16=ドゥ・ユー・ノウ？
EXTD=YEAR: 2006
EXTT0=
EXTT1=
EXTT2=
EXTT3=
EXTT4=
EXTT5=
EXTT6=
EXTT7=
EXTT8=
EXTT9=
EXTT10=
EXTT11=
EXTT12=
EXTT13=
EXTT14=
EXTT15=
EXTT16=
PLAYORDER=
